<?xml version="1.0" encoding="UTF-8"?>
<svg xmlns="http://www.w3.org/2000/svg" viewBox="0 0 900 300" width="900" height="300">
  <defs>
    <pattern id="d1-hatch" width="8" height="8" patternUnits="userSpaceOnUse" patternTransform="rotate(45)">
      <line x1="0" y1="0" x2="0" y2="8" stroke="#141414" stroke-width="1" opacity="0.4"/>
    </pattern>
    <pattern id="d1-stipple" width="5" height="5" patternUnits="userSpaceOnUse">
      <circle cx="1.5" cy="1.5" r="0.8" fill="#141414" opacity="0.4"/>
    </pattern>
  </defs>
  <rect width="100%" height="100%" fill="#f3f1ec"/>
  
    <ellipse cx="280" cy="180" rx="100" ry="60" fill="none" stroke="#141414" stroke-width="2" opacity="0.4"/>
    <text x="280" y="185" text-anchor="middle" font-family="Georgia,serif" font-size="14" fill="#5a5a5a">tips</text>
    <path d="M400 180 L520 180" stroke="#141414" stroke-width="2" marker-end="url(#arr)"/>
    <ellipse cx="650" cy="180" rx="120" ry="70" fill="none" stroke="#141414" stroke-width="3"/>
    <path d="M560 130 Q650 100 740 130 Q760 200 650 230 Q540 200 560 130" fill="url(#d1-hatch)"/><path d="M560 130 Q650 100 740 130 Q760 200 650 230 Q540 200 560 130" fill="url(#d1-hatch2)" opacity="0.5"/>
    <text x="650" y="185" text-anchor="middle" font-family="Georgia,serif" font-size="14" fill="#141414">your story</text>
    <path d="M770 180 L890 180" stroke="#141414" stroke-width="2"/>
    <text x="820" y="185" text-anchor="middle" font-family="Georgia,serif" font-size="14" fill="#141414">saved</text>
</svg>